<svg viewBox="0 0 66 23" fill="none" xmlns="http://www.w3.org/2000/svg"><path d="M14.18 16.08c-1.05 1.27-6.16 1.42-8.08 1.42-3.8 0-6.1-2.45-6.1-6 0-3.53 2.33-5.98 6.1-5.98 1.82 0 7.07 1.2 8.13 2.47l-5.4 1.5a3.4 3.4 0 0 0-2.73-1.18c-1.61 0-3 1.3-3 3.19 0 2.06 1.3 3.22 3 3.22 1 0 2.16-.39 2.78-1.18l5.3 2.54Zm14.62-9.77-6.98 16.56h-3.43l2.23-5.16-4.82-11.4h3.4l2.4 6.1.7 2.18.67-2.18 2.4-6.1h3.43Zm7.85 2.55c-1.73 0-2.98 1.32-2.98 3.12 0 1.77 1.25 3.1 2.98 3.1 1.68 0 2.83-1.26 2.83-3.1 0-1.88-1.15-3.12-2.83-3.12Zm-5.98 8.73v-17.59h3.05v6.26l-.05.82c.5-.67 2.04-1.06 3.1-1.06 3.77 0 5.88 2.76 5.88 5.96 0 3.6-2.16 5.92-5.88 5.92-.91 0-2.38-.43-2.98-1.15l.03.65v.2h-3.15Zm24.67-1.44c-.89 1.15-2.93 1.85-4.68 1.85-3.82 0-5.95-2.62-5.95-6 0-3.46 2.1-5.98 5.83-5.98 3.7 0 5.8 2.52 5.8 5.98 0 .38 0 .62-.02.96h-8.5c.17 1.42 1.23 2.3 2.84 2.3 1.15 0 2.23-.38 2.9-1.12l1.78 2.01Zm-7.47-5.25h5.28c-.14-1.28-1.2-2.14-2.61-2.14-1.42 0-2.55.86-2.67 2.14Zm16.88-1.76a5.28 5.28 0 0 0-2.95-.12v8.57h-3.1v-10.77a9.88 9.88 0 0 1 4.1-.82c.68 0 1.88.07 2.6.34l-.65 2.8Z" fill="#fff"/></svg>