<svg viewBox="0 0 96 29" fill="none" xmlns="http://www.w3.org/2000/svg"><path d="m5.43 9.4 3.48-2.01-1.94-3.37h18.28l-9.14 15.84-1.94-3.37-3.48 2.02 5.42 9.4 16.11-27.91h-32.22l5.43 9.4Zm39.31 12.09a5.76 5.76 0 0 1-4.59 1.92c-3.79 0-6.1-2.45-6.1-6 0-3.53 2.33-5.98 6.1-5.98a6 6 0 0 1 4.63 1.97l-1.9 2a3.4 3.4 0 0 0-2.73-1.18c-1.6 0-3 1.3-3 3.19 0 2.06 1.3 3.21 3 3.21 1.01 0 2.16-.38 2.79-1.17l1.8 2.04Zm14.62-9.77-6.99 16.56h-3.43l2.23-5.16-4.82-11.4h3.4l2.4 6.1.7 2.18.67-2.18 2.4-6.1h3.44Zm7.84 2.54c-1.73 0-2.97 1.32-2.97 3.12 0 1.78 1.24 3.1 2.97 3.1 1.68 0 2.83-1.25 2.83-3.1 0-1.87-1.15-3.12-2.83-3.12Zm-5.97 8.74v-17.6h3.04v6.27l-.04.82c.5-.67 2.04-1.06 3.1-1.06 3.76 0 5.87 2.76 5.87 5.95 0 3.6-2.16 5.93-5.88 5.93-.9 0-2.37-.43-2.97-1.15l.02.65v.19h-3.14Zm24.67-1.44c-.9 1.15-2.94 1.85-4.69 1.85-3.81 0-5.95-2.62-5.95-6 0-3.46 2.11-5.98 5.83-5.98 3.7 0 5.8 2.52 5.8 5.98l-.01.96h-8.5c.17 1.41 1.22 2.3 2.83 2.3 1.15 0 2.23-.38 2.9-1.13l1.78 2.02Zm-7.47-5.26h5.28c-.15-1.27-1.2-2.13-2.62-2.13-1.41 0-2.54.86-2.66 2.13Zm16.87-1.75a5.28 5.28 0 0 0-2.95-.12v8.57h-3.1v-10.78a9.88 9.88 0 0 1 4.11-.81c.67 0 1.87.07 2.6.33l-.66 2.81Z" fill="#000"/></svg>