<svg viewBox="0 0 120 24" fill="none" xmlns="http://www.w3.org/2000/svg"><path d="M10.44 3.36a1.73 1.73 0 0 1 3.12 0l1.44 3.08c.25.54.77.91 1.36.99l3.38.41a1.73 1.73 0 0 1 .96 2.98l-2.49 2.32c-.43.4-.63 1-.51 1.59l.65 3.34a1.73 1.73 0 0 1-2.53 1.84l-2.98-1.65a1.73 1.73 0 0 0-1.68 0l-2.98 1.65a1.73 1.73 0 0 1-2.53-1.84l.65-3.34a1.73 1.73 0 0 0-.51-1.6l-2.5-2.31c-1.07-1-.48-2.8.97-2.98l3.38-.41c.6-.08 1.1-.45 1.36-.99l1.44-3.08Zm24 0a1.73 1.73 0 0 1 3.12 0l1.44 3.08c.25.54.77.91 1.36.99l3.38.41a1.73 1.73 0 0 1 .96 2.98l-2.49 2.32c-.43.4-.63 1-.51 1.59l.65 3.34a1.73 1.73 0 0 1-2.53 1.84l-2.98-1.65a1.73 1.73 0 0 0-1.68 0l-2.98 1.65a1.73 1.73 0 0 1-2.53-1.84l.65-3.34a1.72 1.72 0 0 0-.51-1.6l-2.5-2.31c-1.07-1-.48-2.8.97-2.98l3.38-.41c.6-.08 1.1-.45 1.36-.99l1.44-3.08Zm24 0a1.73 1.73 0 0 1 3.12 0l1.44 3.08c.25.54.77.91 1.36.99l3.38.41a1.73 1.73 0 0 1 .96 2.98l-2.49 2.32c-.43.4-.63 1-.51 1.59l.65 3.34a1.73 1.73 0 0 1-2.53 1.84l-2.98-1.65a1.73 1.73 0 0 0-1.68 0l-2.98 1.65a1.73 1.73 0 0 1-2.53-1.84l.65-3.34a1.72 1.72 0 0 0-.51-1.6l-2.5-2.31c-1.07-1-.48-2.8.97-2.98l3.38-.41c.6-.08 1.1-.45 1.36-.99l1.44-3.08Zm24 0a1.73 1.73 0 0 1 3.12 0l1.44 3.08c.25.54.77.91 1.36.99l3.38.41a1.73 1.73 0 0 1 .96 2.98l-2.49 2.32c-.43.4-.63 1-.51 1.59l.65 3.34a1.73 1.73 0 0 1-2.53 1.84l-2.98-1.65a1.73 1.73 0 0 0-1.68 0l-2.98 1.65a1.73 1.73 0 0 1-2.53-1.84l.65-3.34a1.72 1.72 0 0 0-.51-1.6l-2.5-2.31c-1.07-1-.48-2.8.97-2.98l3.38-.41c.6-.08 1.1-.45 1.36-.99l1.44-3.08Z" fill="#FFB547"/><path d="M106.89 3.57a1.22 1.22 0 0 1 2.22 0l1.44 3.09c.32.7.98 1.17 1.75 1.26l3.38.42c1.03.12 1.44 1.4.68 2.11l-2.49 2.32c-.56.53-.81 1.3-.67 2.06l.66 3.34a1.22 1.22 0 0 1-1.8 1.3l-2.98-1.65a2.22 2.22 0 0 0-2.16 0l-2.98 1.66c-.9.5-2-.29-1.8-1.31l.66-3.34c.14-.76-.1-1.53-.67-2.06l-2.5-2.32a1.23 1.23 0 0 1 .7-2.11l3.37-.42a2.2 2.2 0 0 0 1.75-1.26l1.44-3.1Z" fill="url(#a)" stroke="#FFB547"/><defs><linearGradient id="a" x1="107.119" y1="11.851" x2="115.878" y2="11.851" gradientUnits="userSpaceOnUse"><stop offset=".395" stop-color="#FFB547"/><stop offset=".395" stop-color="#FFB547" stop-opacity="0"/></linearGradient></defs></svg>