<svg viewBox="0 0 24 24" fill="none" xmlns="http://www.w3.org/2000/svg"><path d="M9.42.75c-.7 0-.94.16-.94.94v.7h-2.1c-1.39 0-1.65.26-1.65 1.64v17.58c0 1.38.26 1.64 1.64 1.64h11.25c1.39 0 1.65-.26 1.65-1.64v-17.58c0-1.38-.26-1.64-1.64-1.64h-2.11v-.7c0-.78-.24-.94-.94-.94h-5.16Zm-3.05 4.92c0-1.87-.23-1.64 1.65-1.64h7.96c1.88 0 1.64-.23 1.64 1.64v14.3c0 1.87.24 1.64-1.64 1.64h-7.96c-1.88 0-1.65.23-1.65-1.64v-14.3Zm1.18 3.28h8.9c.26 0 .47.21.47.47v2.58c0 .26-.2.47-.47.47h-8.9a.47.47 0 0 1-.47-.47v-2.58c0-.26.2-.47.47-.47Zm0 4.22h8.9c.26 0 .47.21.47.47v2.58c0 .26-.2.47-.47.47h-8.9a.47.47 0 0 1-.47-.47v-2.58c0-.26.2-.47.47-.47Zm0 4.22h8.9c.26 0 .47.21.47.47v2.58c0 .26-.2.47-.47.47h-8.9a.47.47 0 0 1-.47-.47v-2.58c0-.26.2-.47.47-.47Z" fill="#4E4E4E"/></svg>