<svg viewBox="0 0 24 24" fill="none" xmlns="http://www.w3.org/2000/svg"><path fill-rule="evenodd" clip-rule="evenodd" d="M14.22 21h-4.44c-3.12 0-4.68 0-5.8-.74a4.4 4.4 0 0 1-1.23-1.2c-.75-1.1-.75-2.63-.75-5.7 0-3.06 0-4.6.75-5.7a4.4 4.4 0 0 1 1.23-1.2c.72-.47 1.62-.64 3-.7a1.4 1.4 0 0 0 1.35-1.12 2.06 2.06 0 0 1 2.04-1.64h3.26c1 0 1.84.68 2.04 1.64.13.63.7 1.12 1.35 1.12 1.38.06 2.28.23 3 .7.49.32.9.73 1.23 1.2.75 1.1.75 2.64.75 5.7 0 3.07 0 4.6-.75 5.7a4.4 4.4 0 0 1-1.23 1.2c-1.12.74-2.68.74-5.8.74Zm1.05-11.4a.75.75 0 0 0-1.5 0v.14a3.92 3.92 0 1 0 2.12 3.94.75.75 0 0 0-1.49-.17 2.42 2.42 0 1 1-1.72-2.6.75.75 0 0 0 .47 1.42l1.52-.32c.35-.07.6-.38.6-.73v-1.68Z" fill="#4E4E4E"/></svg>