<svg viewBox="0 0 24 24" fill="none" xmlns="http://www.w3.org/2000/svg"><path fill-rule="evenodd" clip-rule="evenodd" d="M9.78 21h4.44c3.12 0 4.68 0 5.8-.74.49-.31.9-.72 1.23-1.2.75-1.1.75-2.63.75-5.7 0-3.06 0-4.6-.75-5.7a4.4 4.4 0 0 0-1.23-1.2c-.72-.47-1.62-.64-3-.7a1.4 1.4 0 0 1-1.35-1.12 2.06 2.06 0 0 0-2.04-1.64h-3.26c-1 0-1.84.68-2.04 1.64a1.4 1.4 0 0 1-1.35 1.12c-1.38.06-2.28.23-3 .7-.49.32-.9.73-1.23 1.2-.75 1.1-.75 2.64-.75 5.7 0 3.07 0 4.6.75 5.7.32.48.74.89 1.23 1.2 1.12.74 2.68.74 5.8.74Zm2.22-11.73a4.13 4.13 0 0 0-4.17 4.1c0 2.25 1.87 4.08 4.17 4.08s4.17-1.83 4.17-4.09-1.87-4.09-4.17-4.09Zm0 1.64c-1.38 0-2.5 1.1-2.5 2.45a2.48 2.48 0 0 0 2.5 2.46c1.38 0 2.5-1.1 2.5-2.46a2.48 2.48 0 0 0-2.5-2.45Zm4.72-.82c0-.45.38-.82.84-.82h1.1c.47 0 .84.37.84.82 0 .45-.37.82-.83.82h-1.11a.83.83 0 0 1-.84-.82Z" fill="#4E4E4E"/></svg>