<svg viewBox="0 0 24 24" fill="none" xmlns="http://www.w3.org/2000/svg"><path fill-rule="evenodd" clip-rule="evenodd" d="M12 3c.39 0 .7.31.7.7v2.79l1.4.01v-2.81a.7.7 0 0 1 1.39 0v2.8a.7.7 0 0 1-.01.1c.94.12 1.58.36 2.08.85.5.5.73 1.14.84 2.08a.7.7 0 0 1 .11 0h2.8a.7.7 0 0 1 0 1.39h-2.82c.02.42.02.88.02 1.4h2.8a.7.7 0 0 1 0 1.39h-2.8c0 .5 0 .97-.02 1.4h2.82a.7.7 0 0 1 0 1.39h-2.8a.7.7 0 0 1-.1-.01c-.12.94-.36 1.58-.85 2.08-.5.5-1.14.73-2.08.84a.7.7 0 0 1 0 .11v2.8a.7.7 0 0 1-1.39 0v-2.82c-.42.02-.88.02-1.4.02v2.8a.7.7 0 0 1-1.39 0v-2.8c-.5 0-.97 0-1.4-.02v2.82a.7.7 0 0 1-1.39 0v-2.8a.7.7 0 0 1 .01-.1c-.94-.12-1.58-.36-2.08-.85-.5-.5-.73-1.14-.84-2.08a.7.7 0 0 1-.11 0h-2.8a.7.7 0 0 1 0-1.39h2.81l-.01-1.4h-2.8a.7.7 0 0 1 0-1.39h2.8l.01-1.4h-2.81a.7.7 0 0 1 0-1.39h2.8a.7.7 0 0 1 .1.01c.12-.94.36-1.58.85-2.08.5-.5 1.14-.73 2.08-.84a.7.7 0 0 1 0-.11v-2.8a.7.7 0 0 1 1.39 0v2.81l1.4-.01v-2.8c0-.38.3-.69.69-.69Zm-.98 5.58c-.61 0-1.15 0-1.57.06-.46.06-.9.2-1.26.55-.35.36-.49.8-.55 1.26-.06.42-.06.96-.06 1.57v1.96c0 .61 0 1.15.06 1.57.06.46.2.9.55 1.26.36.35.8.49 1.26.55.42.06.96.06 1.57.06h1.96c.61 0 1.15 0 1.57-.06.46-.06.9-.2 1.26-.55.35-.36.49-.8.55-1.26.06-.42.06-.96.06-1.57v-1.96c0-.61 0-1.15-.06-1.57-.06-.46-.2-.9-.55-1.26-.36-.35-.8-.49-1.26-.55-.42-.06-.96-.06-1.57-.06h-1.96Z" fill="#4E4E4E"/><path opacity=".5" d="M9.18 10.18c.05-.05.15-.12.45-.16.32-.04.76-.04 1.44-.04h1.86c.68 0 1.12 0 1.44.04.3.04.4.1.45.16.05.05.12.15.16.45.04.32.04.76.04 1.44v1.86c0 .68 0 1.12-.04 1.44-.04.3-.1.4-.16.45-.05.05-.15.12-.45.16-.32.04-.76.04-1.44.04h-1.86c-.68 0-1.12 0-1.44-.04-.3-.04-.4-.1-.45-.16-.05-.05-.12-.15-.16-.45-.04-.32-.04-.76-.04-1.44v-1.86c0-.68 0-1.12.04-1.44.04-.3.1-.4.16-.45Z" fill="#4E4E4E"/></svg>