<svg viewBox="0 0 24 24" fill="none" xmlns="http://www.w3.org/2000/svg"><path d="M7 11c0-1.89 0-2.83.59-3.41.58-.59 1.52-.59 3.41-.59h2c1.89 0 2.83 0 3.41.59.59.58.59 1.52.59 3.41v2c0 1.89 0 2.83-.59 3.41-.58.59-1.52.59-3.41.59h-2c-1.89 0-2.83 0-3.41-.59-.59-.58-.59-1.52-.59-3.41v-2Z" stroke="#4E4E4E"/><path d="M13 10h-2a1 1 0 0 0-1 1v2a1 1 0 0 0 1 1h2a1 1 0 0 0 1-1v-2a1 1 0 0 0-1-1Z" fill="#4E4E4E"/><path d="M10 7v-3m4 3v-3m3 6h3m-3 4h3m-10 6v-3m4 3v-3m-10-7h3m-3 4h3" stroke="#4E4E4E" stroke-linecap="round"/></svg>