<svg viewBox="0 0 24 24" fill="none" xmlns="http://www.w3.org/2000/svg"><path d="m21.47 11.19-1.03-1.43a2.5 2.5 0 0 0-2.03-1.05h-4.38v-2.15a2.5 2.5 0 0 0-2.5-2.5h-6.97a2.5 2.5 0 0 0-2.5 2.5v9.94a1.5 1.5 0 0 0 1.5 1.5h1.22a2.24 2.24 0 0 0 4.44 0h5.56a2.24 2.24 0 0 0 4.44 0h1.22a1.5 1.5 0 0 0 1.5-1.5v-3.87a2.5 2.5 0 0 0-.47-1.45Zm-14.47 7.74a1.25 1.25 0 1 1 0-2.5 1.25 1.25 0 0 1 0 2.5Zm6.03-1.93h-3.88a2.26 2.26 0 0 0-4.3 0h-1.29a.5.5 0 0 1-.5-.5v-9.93a1.5 1.5 0 0 1 1.5-1.5h6.97a1.5 1.5 0 0 1 1.5 1.5v10.43Zm3.97 1.93a1.25 1.25 0 1 1 0-2.5 1.25 1.25 0 0 1 0 2.5Zm3.94-2.43a.5.5 0 0 1-.5.5h-1.29a2.26 2.26 0 0 0-4.3 0h-.82v-7.3h4.38a1.52 1.52 0 0 1 1.22.64l1.03 1.43c.18.25.28.55.28.87v3.86Z" fill="#797979"/><path d="M18.03 12.2h-2a.5.5 0 0 1 0-1h2a.5.5 0 1 1 0 1Z" fill="#797979"/></svg>