<svg viewBox="0 0 24 24" fill="none" xmlns="http://www.w3.org/2000/svg"><path fill-rule="evenodd" clip-rule="evenodd" d="m17.2 10.8 1.8-1.8a5 5 0 0 0 .96-1.11 2 2 0 0 0 0-1.78 5 5 0 0 0-.96-1.11 5 5 0 0 0-1.11-.96 2 2 0 0 0-1.78 0c-.3.14-.56.41-1.11.96l-1.82 1.82a10.9 10.9 0 0 0 4.02 3.98Zm-5.47-2.53-6.87 6.87c-.43.43-.64.64-.78.9s-.2.56-.32 1.15l-.61 3.07c-.07.34-.1.5 0 .6.09.1.25.06.59 0l3.07-.62c.6-.12.89-.18 1.15-.32.26-.14.47-.35.9-.78l6.89-6.89a12.9 12.9 0 0 1-4.02-3.98Z" fill="#222"/></svg>