<svg viewBox="0 0 24 24" fill="none" xmlns="http://www.w3.org/2000/svg"><path fill-rule="evenodd" clip-rule="evenodd" d="M4 7a1 1 0 0 0-1 1v8a1 1 0 0 0 1 1h16a1 1 0 0 0 1-1v-8a1 1 0 0 0-1-1h-16Zm-3 1a3 3 0 0 1 3-3h16a3 3 0 0 1 3 3v8a3 3 0 0 1-3 3h-16a3 3 0 0 1-3-3v-8Z" fill="#2E2E2E"/><path fill-rule="evenodd" clip-rule="evenodd" d="M8 9a1 1 0 0 1 1 1v1h1a1 1 0 1 1 0 2h-1v1a1 1 0 1 1-2 0v-1h-1a1 1 0 1 1 0-2h1v-1a1 1 0 0 1 1-1Zm7 .5c.83 0 1.5.67 1.5 1.5v.01a1.5 1.5 0 0 1-3 0v-.01c0-.83.67-1.5 1.5-1.5Zm3 2c.83 0 1.5.67 1.5 1.5v.01a1.5 1.5 0 0 1-3 0v-.01c0-.83.67-1.5 1.5-1.5Z" fill="#2E2E2E"/></svg>