<svg viewBox="0 0 16 16" fill="none" xmlns="http://www.w3.org/2000/svg"><g clip-path="url(#a)"><path d="M8 14.67c-1.43 0-2.46 0-3.26-.08a3.8 3.8 0 0 1-1.7-.48c-.47-.3-.86-.68-1.15-1.14-.25-.41-.4-.92-.48-1.71a37.4 37.4 0 0 1-.08-3.26c0-1.43 0-2.46.08-3.26.08-.8.23-1.3.48-1.7.3-.47.68-.86 1.15-1.15.4-.25.9-.4 1.7-.48.8-.08 1.83-.08 3.26-.08 1.43 0 2.46 0 3.26.08.8.08 1.3.23 1.7.48.47.3.86.68 1.15 1.15.25.4.4.9.48 1.7.08.8.08 1.83.08 3.26 0 1.43 0 2.46-.08 3.26a3.8 3.8 0 0 1-.48 1.7c-.3.47-.68.86-1.14 1.15-.41.25-.92.4-1.71.48-.8.08-1.83.08-3.26.08Z" fill="#fff" stroke="#fff" stroke-width="2"/><path d="M8 11.33a2.67 2.67 0 1 0 0-5.33 2.67 2.67 0 0 0 0 5.33Z" fill="#fff" stroke="#000" stroke-width="2"/><path d="M11.25 5.5a.75.75 0 1 0 0-1.5.75.75 0 0 0 0 1.5Z" fill="#000"/></g><defs><clipPath id="a"><path fill="#fff" d="M0 0h16v16h-16z"/></clipPath></defs></svg>