<svg viewBox="0 0 24 24" fill="none" xmlns="http://www.w3.org/2000/svg"><rect width="24" height="24" rx="12" fill="#000"/><path d="M17.22 13.98c-.17-.14-1.72-1.85-2.6-2.64v-3.68c0-.92-.75-1.66-1.66-1.66h-5.42c-.85 0-1.54.7-1.54 1.54v8.62c0 .91.74 1.66 1.66 1.66h1.97c.07 0 .12-.06.12-.13l-.09-.73c0-.06-.05-.1-.11-.1h-.24a.12.12 0 0 1-.12-.12v-9.8c0-.06.06-.11.12-.11h3.66c.37 0 .67.3.67.67v8.8c0 .25-.17.46-.4.53h-.01c-.4-.22-.88-1.14-.95-1.29a.07.07 0 0 1 0-.04c-.03-.23-.3-2.51-1.51-2.51h-.1s-.98.09-.17 2.85v.02l.36 3.07v.02c.03.11.43 1.68 1.48 2.79.01.02.03.04.03.07v.27l-.02.01h-.09a.42.42 0 0 0-.41.42v1.08c0 .22.18.41.41.41h4.4c.23 0 .41-.19.41-.41v-1.08a.42.42 0 0 0-.41-.41l-.01-.01c.14-1.36.67-5.98.95-6.34l.02-.04c.04-.17.29-1.2-.4-1.73Zm-9.49 2.77a.1.1 0 0 1-.1.1.67.67 0 0 1-.67-.66v-8.7c0-.36.3-.66.67-.66.05 0 .1.05.1.1v9.82Z" fill="#fff"/></svg>