<svg viewBox="0 0 24 24" fill="none" xmlns="http://www.w3.org/2000/svg"><path d="M11 2a1 1 0 1 0 0 2v-2Zm2.34 2a1 1 0 0 0 0-2v2Zm-.34 14.86a1 1 0 1 0-2 0h2Zm-2 .01a1 1 0 1 0 2 0h-2Zm-3.69-15.25h9.38v-2h-9.38v2Zm9.38 0c.1 0 .17.08.17.18h2c0-1.2-.97-2.17-2.17-2.17v2Zm.17.18v16.4h2v-16.4h-2Zm0 16.4c0 .1-.08.18-.17.18v2c1.2 0 2.17-.98 2.17-2.18h-2Zm-.17.18h-9.38v2h9.38v-2Zm-9.38 0a.17.17 0 0 1-.17-.18h-2c0 1.2.97 2.18 2.17 2.18v-2Zm-.17-.18v-16.4h-2v16.4h2Zm0-16.4c0-.1.08-.17.17-.17v-2c-1.2 0-2.17.97-2.17 2.17h2Zm3.86.2h2.34v-2h-2.34v2Zm0 14.86v.01h2v-.01h-2Zm-4.5-1.36h11v-2h-11v2Z" fill="#2E2E2E"/></svg>