<svg viewBox="0 0 24 24" fill="none" xmlns="http://www.w3.org/2000/svg"><g clip-path="url(#a)"><path fill-rule="evenodd" clip-rule="evenodd" d="M6.6 3.25c-.84.84-.84 2.2-.84 4.91v7.68c0 2.71 0 4.07.85 4.91.84.84 2.2.84 4.91.84h.96c2.71 0 4.07 0 4.91-.84.85-.84.85-2.2.85-4.91v-7.68c0-2.71 0-4.07-.85-4.91-.84-.84-2.2-.84-4.91-.84h-.96c-2.71 0-4.07 0-4.91.84Zm7.8 2.79a.75.75 0 0 0 0-1.5h-4.8a.75.75 0 0 0 0 1.5h4.8Zm-2.4 12.68a1.44 1.44 0 1 0 0-2.88 1.44 1.44 0 0 0 0 2.88Z" fill="#4E4E4E"/></g><defs><clipPath id="a"><path fill="#fff" d="M0 0h24v24h-24z"/></clipPath></defs></svg>