<svg viewBox="0 0 24 24" fill="none" xmlns="http://www.w3.org/2000/svg"><rect width="24" height="24" rx="12" fill="#000"/><path d="M11.28 16.61a2.51 2.51 0 0 0-.88-.54l-.69-2.67 8.16-2.28.87 3.4-7.46 2.1Zm-2.6-7.22 5.44-1.52.87 3.4-5.43 1.53-.88-3.41Zm.24 6.63c-.15.04-.29.1-.43.17l-2.4-9.35h-.9a.56.56 0 0 1-.5.34h-1.13a.58.58 0 0 1-.56-.6c0-.32.25-.58.56-.58h1.13c.19 0 .35.1.45.25h1.73v.03h.03l2.48 9.66c-.15.01-.3.03-.46.08Zm.15.56c1.05-.3 2.13.36 2.41 1.46a2.07 2.07 0 0 1-1.39 2.52 1.97 1.97 0 0 1-2.41-1.46 2.07 2.07 0 0 1 1.39-2.52Zm-.3 2.26c.12.47.59.74 1.04.62a.89.89 0 0 0 .6-1.08.84.84 0 0 0-1.04-.63.89.89 0 0 0-.6 1.09Zm9.9-2.32-6.57 1.84a2.72 2.72 0 0 0-.24-.92l6.54-1.83.27.91Z" fill="#fff"/></svg>