<svg viewBox="0 0 24 24" fill="none" xmlns="http://www.w3.org/2000/svg"><path fill-rule="evenodd" clip-rule="evenodd" d="M7.44 1.25h9.12c.57 0 1.06 0 1.46.04.42.05.82.14 1.19.37.37.23.63.54.86.9.22.34.43.77.69 1.28l.02.04.02.06 1.4 3.54c.17.43.36.95.41 1.5.06.54-.02 1.17-.45 1.72-.35.45-.84.79-1.41.95v9.6h1.25a.75.75 0 0 1 0 1.5h-20a.75.75 0 0 1 0-1.5h1.25v-9.6a2.75 2.75 0 0 1-1.41-.95 2.34 2.34 0 0 1-.45-1.73 5.7 5.7 0 0 1 .4-1.49l1.4-3.54.03-.06.02-.04c.25-.5.47-.94.69-1.28.23-.36.49-.67.86-.9a2.8 2.8 0 0 1 1.2-.37c.4-.04.88-.04 1.45-.04Zm10.56 9.64c.34.35.77.62 1.25.76v9.6h-4v-2.78c0-.44 0-.82-.03-1.13-.03-.33-.1-.66-.27-.96-.2-.35-.48-.63-.82-.83a2.28 2.28 0 0 0-.97-.27c-.3-.03-.69-.03-1.13-.03h-.06c-.44 0-.82 0-1.13.03-.33.03-.66.1-.96.27-.35.2-.63.48-.83.82-.18.31-.24.64-.27.97-.03.3-.03.69-.03 1.13v2.78h-4v-9.6c.48-.14.91-.4 1.25-.76a2.74 2.74 0 0 0 4 0 2.74 2.74 0 0 0 4 0 2.74 2.74 0 0 0 4 0Zm-7.75 10.36h3.5v-2.75c0-.48 0-.8-.02-1.03a.84.84 0 0 0-.08-.34.75.75 0 0 0-.28-.28.84.84 0 0 0-.34-.08c-.24-.02-.55-.02-1.03-.02s-.8 0-1.03.02a.84.84 0 0 0-.35.08.75.75 0 0 0-.27.27.84.84 0 0 0-.08.35c-.02.24-.02.55-.02 1.03v2.75Zm-3.5-12.25a1.25 1.25 0 0 0 2.5 0 .75.75 0 0 1 1.5 0 1.25 1.25 0 0 0 2.5 0 .75.75 0 0 1 1.5 0 1.25 1.25 0 0 0 2.5 0 .75.75 0 0 1 1.5 0 1.25 1.25 0 0 0 2.23.77c.12-.14.17-.34.14-.65a4.26 4.26 0 0 0-.3-1.08l-1.4-3.52c-.27-.54-.45-.9-.61-1.15a1.25 1.25 0 0 0-.39-.43 1.25 1.25 0 0 0-.56-.16c-.3-.03-.72-.03-1.33-.03h-9.06c-.61 0-1.02 0-1.33.03-.3.03-.45.09-.56.16-.11.07-.23.17-.39.43s-.34.61-.61 1.15l-1.4 3.52c-.15.4-.27.76-.3 1.08-.03.31.02.5.14.65a1.25 1.25 0 0 0 2.23-.77.75.75 0 0 1 1.5 0Z" fill="#797979"/></svg>