<svg viewBox="0 0 24 24" fill="none" xmlns="http://www.w3.org/2000/svg"><path fill-rule="evenodd" clip-rule="evenodd" d="M9 7a2 2 0 0 0-2 2v6c0 1.1.9 2 2 2h6a2 2 0 0 0 2-2v-6a2 2 0 0 0-2-2h-6Zm-4 2a4 4 0 0 1 4-4h6a4 4 0 0 1 4 4v6a4 4 0 0 1-4 4h-6a4 4 0 0 1-4-4v-6Z" fill="#2E2E2E"/><path fill-rule="evenodd" clip-rule="evenodd" d="M9 17a1 1 0 0 1 1 1v2h4v-2a1 1 0 1 1 2 0v3a1 1 0 0 1-1 1h-6a1 1 0 0 1-1-1v-3a1 1 0 0 1 1-1Zm-1-14a1 1 0 0 1 1-1h6a1 1 0 0 1 1 1v3a1 1 0 1 1-2 0v-2h-4v2a1 1 0 0 1-2 0v-3Zm2.36 5.5c.27 0 .5.22.5.5v5.5a.5.5 0 0 1-1 0v-5.5c0-.28.22-.5.5-.5Zm2 2.5c.27 0 .5.22.5.5v3a.5.5 0 0 1-1 0v-3c0-.28.22-.5.5-.5Zm2-1c.27 0 .5.22.5.5v4a.5.5 0 0 1-1 0v-4c0-.28.22-.5.5-.5Z" fill="#2E2E2E"/></svg>