<svg viewBox="0 0 16 16" fill="none" xmlns="http://www.w3.org/2000/svg"><path fill-rule="evenodd" clip-rule="evenodd" d="M16 2.91c-.59.27-1.22.45-1.88.53a3.36 3.36 0 0 0 1.44-1.86c-.64.39-1.34.67-2.09.82a3.24 3.24 0 0 0-2.4-1.07 3.32 3.32 0 0 0-3.19 4.14 9.24 9.24 0 0 1-6.77-3.52 3.43 3.43 0 0 0 1.02 4.5 3.22 3.22 0 0 1-1.49-.43v.04c0 1.64 1.13 3 2.64 3.3a3.13 3.13 0 0 1-1.49.06 3.3 3.3 0 0 0 3.07 2.34 6.48 6.48 0 0 1-4.86 1.4 9.14 9.14 0 0 0 5.03 1.5c6.04 0 9.34-5.12 9.34-9.57v-.44a6.74 6.74 0 0 0 1.63-1.74Z" fill="#fff"/></svg>